<?xml version="1.0" encoding="UTF-8" standalone="no"?>
<!-- Created with Inkscape (http://www.inkscape.org/) -->

<svg
   xmlns:dc="http://purl.org/dc/elements/1.1/"
   xmlns:cc="http://creativecommons.org/ns#"
   xmlns:rdf="http://www.w3.org/1999/02/22-rdf-syntax-ns#"
   xmlns:svg="http://www.w3.org/2000/svg"
   xmlns="http://www.w3.org/2000/svg"
   xmlns:sodipodi="http://sodipodi.sourceforge.net/DTD/sodipodi-0.dtd"
   xmlns:inkscape="http://www.inkscape.org/namespaces/inkscape"
   version="1.1"
   id="svg10007"
   xml:space="preserve"
   width="811.02667"
   height="489.51065"
   viewBox="0 0 811.02667 489.51063"
   sodipodi:docname="scp_processing_workflow.svg"
   inkscape:version="0.92.3 (2405546, 2018-03-11)"><metadata
     id="metadata10013"><rdf:RDF><cc:Work
         rdf:about=""><dc:format>image/svg+xml</dc:format><dc:type
           rdf:resource="http://purl.org/dc/dcmitype/StillImage" /><dc:title /></cc:Work></rdf:RDF></metadata><defs
     id="defs10011"><clipPath
       clipPathUnits="userSpaceOnUse"
       id="clipPath10281"><path
         d="m 25.238,534.996 h 159.469 v 2 H 25.238 Z"
         id="path10279"
         inkscape:connector-curvature="0" /></clipPath><clipPath
       clipPathUnits="userSpaceOnUse"
       id="clipPath10291"><path
         d="M 0,0 H 626 V 816 H 0 Z"
         id="path10289"
         inkscape:connector-curvature="0" /></clipPath><clipPath
       clipPathUnits="userSpaceOnUse"
       id="clipPath10305"><path
         d="m 25.238,465.996 h 159.469 v 2 H 25.238 Z"
         id="path10303"
         inkscape:connector-curvature="0" /></clipPath><clipPath
       clipPathUnits="userSpaceOnUse"
       id="clipPath10315"><path
         d="M 0,0 H 626 V 816 H 0 Z"
         id="path10313"
         inkscape:connector-curvature="0" /></clipPath><clipPath
       clipPathUnits="userSpaceOnUse"
       id="clipPath10329"><path
         d="m 67.359,424.934 h 2 v 152.66 h -2 z"
         id="path10327"
         inkscape:connector-curvature="0" /></clipPath><clipPath
       clipPathUnits="userSpaceOnUse"
       id="clipPath10339"><path
         d="M 0,0 H 626 V 816 H 0 Z"
         id="path10337"
         inkscape:connector-curvature="0" /></clipPath><clipPath
       clipPathUnits="userSpaceOnUse"
       id="clipPath10353"><path
         d="m 140.359,424.934 h 2 v 152.66 h -2 z"
         id="path10351"
         inkscape:connector-curvature="0" /></clipPath><clipPath
       clipPathUnits="userSpaceOnUse"
       id="clipPath10363"><path
         d="M 0,0 H 626 V 816 H 0 Z"
         id="path10361"
         inkscape:connector-curvature="0" /></clipPath><clipPath
       clipPathUnits="userSpaceOnUse"
       id="clipPath10411"><path
         d="m 248.336,534.996 h 159.469 v 2 H 248.336 Z"
         id="path10409"
         inkscape:connector-curvature="0" /></clipPath><clipPath
       clipPathUnits="userSpaceOnUse"
       id="clipPath10421"><path
         d="M 0,0 H 626 V 816 H 0 Z"
         id="path10419"
         inkscape:connector-curvature="0" /></clipPath><clipPath
       clipPathUnits="userSpaceOnUse"
       id="clipPath10435"><path
         d="m 248.336,465.996 h 159.469 v 2 H 248.336 Z"
         id="path10433"
         inkscape:connector-curvature="0" /></clipPath><clipPath
       clipPathUnits="userSpaceOnUse"
       id="clipPath10445"><path
         d="M 0,0 H 626 V 816 H 0 Z"
         id="path10443"
         inkscape:connector-curvature="0" /></clipPath><clipPath
       clipPathUnits="userSpaceOnUse"
       id="clipPath10459"><path
         d="m 290.359,424.934 h 3 v 152.66 h -3 z"
         id="path10457"
         inkscape:connector-curvature="0" /></clipPath><clipPath
       clipPathUnits="userSpaceOnUse"
       id="clipPath10469"><path
         d="M 0,0 H 626 V 816 H 0 Z"
         id="path10467"
         inkscape:connector-curvature="0" /></clipPath><clipPath
       clipPathUnits="userSpaceOnUse"
       id="clipPath10483"><path
         d="m 363.359,424.934 h 2 v 152.66 h -2 z"
         id="path10481"
         inkscape:connector-curvature="0" /></clipPath><clipPath
       clipPathUnits="userSpaceOnUse"
       id="clipPath10493"><path
         d="M 0,0 H 626 V 816 H 0 Z"
         id="path10491"
         inkscape:connector-curvature="0" /></clipPath><clipPath
       clipPathUnits="userSpaceOnUse"
       id="clipPath10541"><path
         d="m 463.934,534.996 h 159.469 v 2 H 463.934 Z"
         id="path10539"
         inkscape:connector-curvature="0" /></clipPath><clipPath
       clipPathUnits="userSpaceOnUse"
       id="clipPath10551"><path
         d="M 0,0 H 626 V 816 H 0 Z"
         id="path10549"
         inkscape:connector-curvature="0" /></clipPath><clipPath
       clipPathUnits="userSpaceOnUse"
       id="clipPath10565"><path
         d="m 463.934,465.996 h 159.469 v 2 H 463.934 Z"
         id="path10563"
         inkscape:connector-curvature="0" /></clipPath><clipPath
       clipPathUnits="userSpaceOnUse"
       id="clipPath10575"><path
         d="M 0,0 H 626 V 816 H 0 Z"
         id="path10573"
         inkscape:connector-curvature="0" /></clipPath><clipPath
       clipPathUnits="userSpaceOnUse"
       id="clipPath10589"><path
         d="m 506.359,424.934 h 2 v 152.66 h -2 z"
         id="path10587"
         inkscape:connector-curvature="0" /></clipPath><clipPath
       clipPathUnits="userSpaceOnUse"
       id="clipPath10599"><path
         d="M 0,0 H 626 V 816 H 0 Z"
         id="path10597"
         inkscape:connector-curvature="0" /></clipPath><clipPath
       clipPathUnits="userSpaceOnUse"
       id="clipPath10613"><path
         d="m 579.359,424.934 h 2 v 152.66 h -2 z"
         id="path10611"
         inkscape:connector-curvature="0" /></clipPath><clipPath
       clipPathUnits="userSpaceOnUse"
       id="clipPath10623"><path
         d="M 0,0 H 626 V 816 H 0 Z"
         id="path10621"
         inkscape:connector-curvature="0" /></clipPath><clipPath
       clipPathUnits="userSpaceOnUse"
       id="clipPath10677"><path
         d="m 248.336,763.996 h 159.469 v 2 H 248.336 Z"
         id="path10675"
         inkscape:connector-curvature="0" /></clipPath><clipPath
       clipPathUnits="userSpaceOnUse"
       id="clipPath10687"><path
         d="M 0,0 H 626 V 816 H 0 Z"
         id="path10685"
         inkscape:connector-curvature="0" /></clipPath><clipPath
       clipPathUnits="userSpaceOnUse"
       id="clipPath10701"><path
         d="m 248.336,730.996 h 159.469 v 2 H 248.336 Z"
         id="path10699"
         inkscape:connector-curvature="0" /></clipPath><clipPath
       clipPathUnits="userSpaceOnUse"
       id="clipPath10711"><path
         d="M 0,0 H 626 V 816 H 0 Z"
         id="path10709"
         inkscape:connector-curvature="0" /></clipPath><clipPath
       clipPathUnits="userSpaceOnUse"
       id="clipPath10725"><path
         d="m 248.336,698.996 h 159.469 v 1 H 248.336 Z"
         id="path10723"
         inkscape:connector-curvature="0" /></clipPath><clipPath
       clipPathUnits="userSpaceOnUse"
       id="clipPath10735"><path
         d="M 0,0 H 626 V 816 H 0 Z"
         id="path10733"
         inkscape:connector-curvature="0" /></clipPath><clipPath
       clipPathUnits="userSpaceOnUse"
       id="clipPath10749"><path
         d="m 248.336,665.996 h 159.469 v 2 H 248.336 Z"
         id="path10747"
         inkscape:connector-curvature="0" /></clipPath><clipPath
       clipPathUnits="userSpaceOnUse"
       id="clipPath10759"><path
         d="M 0,0 H 626 V 816 H 0 Z"
         id="path10757"
         inkscape:connector-curvature="0" /></clipPath><clipPath
       clipPathUnits="userSpaceOnUse"
       id="clipPath10773"><path
         d="m 270.359,635.453 h 2 v 152.66 h -2 z"
         id="path10771"
         inkscape:connector-curvature="0" /></clipPath><clipPath
       clipPathUnits="userSpaceOnUse"
       id="clipPath10783"><path
         d="M 0,0 H 626 V 816 H 0 Z"
         id="path10781"
         inkscape:connector-curvature="0" /></clipPath><clipPath
       clipPathUnits="userSpaceOnUse"
       id="clipPath10797"><path
         d="m 309.359,635.453 h 2 v 152.66 h -2 z"
         id="path10795"
         inkscape:connector-curvature="0" /></clipPath><clipPath
       clipPathUnits="userSpaceOnUse"
       id="clipPath10807"><path
         d="M 0,0 H 626 V 816 H 0 Z"
         id="path10805"
         inkscape:connector-curvature="0" /></clipPath><clipPath
       clipPathUnits="userSpaceOnUse"
       id="clipPath10821"><path
         d="m 348.359,635.453 h 1 v 152.66 h -1 z"
         id="path10819"
         inkscape:connector-curvature="0" /></clipPath><clipPath
       clipPathUnits="userSpaceOnUse"
       id="clipPath10831"><path
         d="M 0,0 H 626 V 816 H 0 Z"
         id="path10829"
         inkscape:connector-curvature="0" /></clipPath><clipPath
       clipPathUnits="userSpaceOnUse"
       id="clipPath10845"><path
         d="m 386.359,635.453 h 2 v 152.66 h -2 z"
         id="path10843"
         inkscape:connector-curvature="0" /></clipPath><clipPath
       clipPathUnits="userSpaceOnUse"
       id="clipPath10855"><path
         d="M 0,0 H 626 V 816 H 0 Z"
         id="path10853"
         inkscape:connector-curvature="0" /></clipPath><clipPath
       clipPathUnits="userSpaceOnUse"
       id="clipPath10869"><path
         d="m 248.336,779.996 h 159.469 v 2 H 248.336 Z"
         id="path10867"
         inkscape:connector-curvature="0" /></clipPath><clipPath
       clipPathUnits="userSpaceOnUse"
       id="clipPath10879"><path
         d="M 0,0 H 626 V 816 H 0 Z"
         id="path10877"
         inkscape:connector-curvature="0" /></clipPath><clipPath
       clipPathUnits="userSpaceOnUse"
       id="clipPath10893"><path
         d="m 248.336,747.996 h 159.469 v 2 H 248.336 Z"
         id="path10891"
         inkscape:connector-curvature="0" /></clipPath><clipPath
       clipPathUnits="userSpaceOnUse"
       id="clipPath10903"><path
         d="M 0,0 H 626 V 816 H 0 Z"
         id="path10901"
         inkscape:connector-curvature="0" /></clipPath><clipPath
       clipPathUnits="userSpaceOnUse"
       id="clipPath10917"><path
         d="m 248.336,714.996 h 159.469 v 2 H 248.336 Z"
         id="path10915"
         inkscape:connector-curvature="0" /></clipPath><clipPath
       clipPathUnits="userSpaceOnUse"
       id="clipPath10927"><path
         d="M 0,0 H 626 V 816 H 0 Z"
         id="path10925"
         inkscape:connector-curvature="0" /></clipPath><clipPath
       clipPathUnits="userSpaceOnUse"
       id="clipPath10941"><path
         d="m 248.336,681.996 h 159.469 v 2 H 248.336 Z"
         id="path10939"
         inkscape:connector-curvature="0" /></clipPath><clipPath
       clipPathUnits="userSpaceOnUse"
       id="clipPath10951"><path
         d="M 0,0 H 626 V 816 H 0 Z"
         id="path10949"
         inkscape:connector-curvature="0" /></clipPath><clipPath
       clipPathUnits="userSpaceOnUse"
       id="clipPath10965"><path
         d="m 248.336,649.996 h 159.469 v 2 H 248.336 Z"
         id="path10963"
         inkscape:connector-curvature="0" /></clipPath><clipPath
       clipPathUnits="userSpaceOnUse"
       id="clipPath10975"><path
         d="M 0,0 H 626 V 816 H 0 Z"
         id="path10973"
         inkscape:connector-curvature="0" /></clipPath><clipPath
       clipPathUnits="userSpaceOnUse"
       id="clipPath10989"><path
         d="m 251.359,635.453 h 2 v 152.66 h -2 z"
         id="path10987"
         inkscape:connector-curvature="0" /></clipPath><clipPath
       clipPathUnits="userSpaceOnUse"
       id="clipPath10999"><path
         d="M 0,0 H 626 V 816 H 0 Z"
         id="path10997"
         inkscape:connector-curvature="0" /></clipPath><clipPath
       clipPathUnits="userSpaceOnUse"
       id="clipPath11013"><path
         d="m 290.359,635.453 h 2 v 152.66 h -2 z"
         id="path11011"
         inkscape:connector-curvature="0" /></clipPath><clipPath
       clipPathUnits="userSpaceOnUse"
       id="clipPath11023"><path
         d="M 0,0 H 626 V 816 H 0 Z"
         id="path11021"
         inkscape:connector-curvature="0" /></clipPath><clipPath
       clipPathUnits="userSpaceOnUse"
       id="clipPath11037"><path
         d="m 328.359,635.453 h 2 v 152.66 h -2 z"
         id="path11035"
         inkscape:connector-curvature="0" /></clipPath><clipPath
       clipPathUnits="userSpaceOnUse"
       id="clipPath11047"><path
         d="M 0,0 H 626 V 816 H 0 Z"
         id="path11045"
         inkscape:connector-curvature="0" /></clipPath><clipPath
       clipPathUnits="userSpaceOnUse"
       id="clipPath11061"><path
         d="m 367.359,635.453 h 2 v 152.66 h -2 z"
         id="path11059"
         inkscape:connector-curvature="0" /></clipPath><clipPath
       clipPathUnits="userSpaceOnUse"
       id="clipPath11071"><path
         d="M 0,0 H 626 V 816 H 0 Z"
         id="path11069"
         inkscape:connector-curvature="0" /></clipPath><clipPath
       clipPathUnits="userSpaceOnUse"
       id="clipPath11085"><path
         d="m 405.359,635.453 h 2 v 152.66 h -2 z"
         id="path11083"
         inkscape:connector-curvature="0" /></clipPath><clipPath
       clipPathUnits="userSpaceOnUse"
       id="clipPath11095"><path
         d="M 0,0 H 626 V 816 H 0 Z"
         id="path11093"
         inkscape:connector-curvature="0" /></clipPath><clipPath
       clipPathUnits="userSpaceOnUse"
       id="clipPath11179"><path
         d="m 463.934,758.996 h 159.469 v 2 H 463.934 Z"
         id="path11177"
         inkscape:connector-curvature="0" /></clipPath><clipPath
       clipPathUnits="userSpaceOnUse"
       id="clipPath11189"><path
         d="M 0,0 H 626 V 816 H 0 Z"
         id="path11187"
         inkscape:connector-curvature="0" /></clipPath><clipPath
       clipPathUnits="userSpaceOnUse"
       id="clipPath11203"><path
         d="m 463.934,715.996 h 159.469 v 2 H 463.934 Z"
         id="path11201"
         inkscape:connector-curvature="0" /></clipPath><clipPath
       clipPathUnits="userSpaceOnUse"
       id="clipPath11213"><path
         d="M 0,0 H 626 V 816 H 0 Z"
         id="path11211"
         inkscape:connector-curvature="0" /></clipPath><clipPath
       clipPathUnits="userSpaceOnUse"
       id="clipPath11227"><path
         d="m 463.934,672.996 h 159.469 v 2 H 463.934 Z"
         id="path11225"
         inkscape:connector-curvature="0" /></clipPath><clipPath
       clipPathUnits="userSpaceOnUse"
       id="clipPath11237"><path
         d="M 0,0 H 626 V 816 H 0 Z"
         id="path11235"
         inkscape:connector-curvature="0" /></clipPath><clipPath
       clipPathUnits="userSpaceOnUse"
       id="clipPath11251"><path
         d="m 486.359,635.453 h 2 v 152.66 h -2 z"
         id="path11249"
         inkscape:connector-curvature="0" /></clipPath><clipPath
       clipPathUnits="userSpaceOnUse"
       id="clipPath11261"><path
         d="M 0,0 H 626 V 816 H 0 Z"
         id="path11259"
         inkscape:connector-curvature="0" /></clipPath><clipPath
       clipPathUnits="userSpaceOnUse"
       id="clipPath11275"><path
         d="m 511.359,635.453 h 1 v 152.66 h -1 z"
         id="path11273"
         inkscape:connector-curvature="0" /></clipPath><clipPath
       clipPathUnits="userSpaceOnUse"
       id="clipPath11285"><path
         d="M 0,0 H 626 V 816 H 0 Z"
         id="path11283"
         inkscape:connector-curvature="0" /></clipPath><clipPath
       clipPathUnits="userSpaceOnUse"
       id="clipPath11299"><path
         d="m 536.359,635.453 h 1 v 152.66 h -1 z"
         id="path11297"
         inkscape:connector-curvature="0" /></clipPath><clipPath
       clipPathUnits="userSpaceOnUse"
       id="clipPath11309"><path
         d="M 0,0 H 626 V 816 H 0 Z"
         id="path11307"
         inkscape:connector-curvature="0" /></clipPath><clipPath
       clipPathUnits="userSpaceOnUse"
       id="clipPath11323"><path
         d="m 560.359,635.453 h 2 v 152.66 h -2 z"
         id="path11321"
         inkscape:connector-curvature="0" /></clipPath><clipPath
       clipPathUnits="userSpaceOnUse"
       id="clipPath11333"><path
         d="M 0,0 H 626 V 816 H 0 Z"
         id="path11331"
         inkscape:connector-curvature="0" /></clipPath><clipPath
       clipPathUnits="userSpaceOnUse"
       id="clipPath11347"><path
         d="m 585.359,635.453 h 2 v 152.66 h -2 z"
         id="path11345"
         inkscape:connector-curvature="0" /></clipPath><clipPath
       clipPathUnits="userSpaceOnUse"
       id="clipPath11357"><path
         d="M 0,0 H 626 V 816 H 0 Z"
         id="path11355"
         inkscape:connector-curvature="0" /></clipPath><clipPath
       clipPathUnits="userSpaceOnUse"
       id="clipPath11371"><path
         d="m 610.359,635.453 h 1 v 152.66 h -1 z"
         id="path11369"
         inkscape:connector-curvature="0" /></clipPath><clipPath
       clipPathUnits="userSpaceOnUse"
       id="clipPath11381"><path
         d="M 0,0 H 626 V 816 H 0 Z"
         id="path11379"
         inkscape:connector-curvature="0" /></clipPath><clipPath
       clipPathUnits="userSpaceOnUse"
       id="clipPath11395"><path
         d="m 463.934,779.996 h 159.469 v 2 H 463.934 Z"
         id="path11393"
         inkscape:connector-curvature="0" /></clipPath><clipPath
       clipPathUnits="userSpaceOnUse"
       id="clipPath11405"><path
         d="M 0,0 H 626 V 816 H 0 Z"
         id="path11403"
         inkscape:connector-curvature="0" /></clipPath><clipPath
       clipPathUnits="userSpaceOnUse"
       id="clipPath11419"><path
         d="m 463.934,736.996 h 159.469 v 2 H 463.934 Z"
         id="path11417"
         inkscape:connector-curvature="0" /></clipPath><clipPath
       clipPathUnits="userSpaceOnUse"
       id="clipPath11429"><path
         d="M 0,0 H 626 V 816 H 0 Z"
         id="path11427"
         inkscape:connector-curvature="0" /></clipPath><clipPath
       clipPathUnits="userSpaceOnUse"
       id="clipPath11443"><path
         d="m 463.934,693.996 h 159.469 v 3 H 463.934 Z"
         id="path11441"
         inkscape:connector-curvature="0" /></clipPath><clipPath
       clipPathUnits="userSpaceOnUse"
       id="clipPath11453"><path
         d="M 0,0 H 626 V 816 H 0 Z"
         id="path11451"
         inkscape:connector-curvature="0" /></clipPath><clipPath
       clipPathUnits="userSpaceOnUse"
       id="clipPath11467"><path
         d="m 463.934,651.996 h 159.469 v 2 H 463.934 Z"
         id="path11465"
         inkscape:connector-curvature="0" /></clipPath><clipPath
       clipPathUnits="userSpaceOnUse"
       id="clipPath11477"><path
         d="M 0,0 H 626 V 816 H 0 Z"
         id="path11475"
         inkscape:connector-curvature="0" /></clipPath><clipPath
       clipPathUnits="userSpaceOnUse"
       id="clipPath11491"><path
         d="m 474.359,635.453 h 2 v 152.66 h -2 z"
         id="path11489"
         inkscape:connector-curvature="0" /></clipPath><clipPath
       clipPathUnits="userSpaceOnUse"
       id="clipPath11501"><path
         d="M 0,0 H 626 V 816 H 0 Z"
         id="path11499"
         inkscape:connector-curvature="0" /></clipPath><clipPath
       clipPathUnits="userSpaceOnUse"
       id="clipPath11515"><path
         d="m 498.359,635.453 h 2 v 152.66 h -2 z"
         id="path11513"
         inkscape:connector-curvature="0" /></clipPath><clipPath
       clipPathUnits="userSpaceOnUse"
       id="clipPath11525"><path
         d="M 0,0 H 626 V 816 H 0 Z"
         id="path11523"
         inkscape:connector-curvature="0" /></clipPath><clipPath
       clipPathUnits="userSpaceOnUse"
       id="clipPath11539"><path
         d="m 523.359,635.453 h 2 v 152.66 h -2 z"
         id="path11537"
         inkscape:connector-curvature="0" /></clipPath><clipPath
       clipPathUnits="userSpaceOnUse"
       id="clipPath11549"><path
         d="M 0,0 H 626 V 816 H 0 Z"
         id="path11547"
         inkscape:connector-curvature="0" /></clipPath><clipPath
       clipPathUnits="userSpaceOnUse"
       id="clipPath11563"><path
         d="m 548.359,635.453 h 2 v 152.66 h -2 z"
         id="path11561"
         inkscape:connector-curvature="0" /></clipPath><clipPath
       clipPathUnits="userSpaceOnUse"
       id="clipPath11573"><path
         d="M 0,0 H 626 V 816 H 0 Z"
         id="path11571"
         inkscape:connector-curvature="0" /></clipPath><clipPath
       clipPathUnits="userSpaceOnUse"
       id="clipPath11587"><path
         d="m 572.359,635.453 h 2 v 152.66 h -2 z"
         id="path11585"
         inkscape:connector-curvature="0" /></clipPath><clipPath
       clipPathUnits="userSpaceOnUse"
       id="clipPath11597"><path
         d="M 0,0 H 626 V 816 H 0 Z"
         id="path11595"
         inkscape:connector-curvature="0" /></clipPath><clipPath
       clipPathUnits="userSpaceOnUse"
       id="clipPath11611"><path
         d="m 597.359,635.453 h 2 v 152.66 h -2 z"
         id="path11609"
         inkscape:connector-curvature="0" /></clipPath><clipPath
       clipPathUnits="userSpaceOnUse"
       id="clipPath11621"><path
         d="M 0,0 H 626 V 816 H 0 Z"
         id="path11619"
         inkscape:connector-curvature="0" /></clipPath><clipPath
       clipPathUnits="userSpaceOnUse"
       id="clipPath11635"><path
         d="m 622.359,635.453 h 1.043 v 152.66 h -1.043 z"
         id="path11633"
         inkscape:connector-curvature="0" /></clipPath><clipPath
       clipPathUnits="userSpaceOnUse"
       id="clipPath11645"><path
         d="M 0,0 H 626 V 816 H 0 Z"
         id="path11643"
         inkscape:connector-curvature="0" /></clipPath></defs><sodipodi:namedview
     pagecolor="#ffffff"
     bordercolor="#666666"
     borderopacity="1"
     objecttolerance="10"
     gridtolerance="10"
     guidetolerance="10"
     inkscape:pageopacity="0"
     inkscape:pageshadow="2"
     inkscape:window-width="1920"
     inkscape:window-height="1056"
     id="namedview10009"
     showgrid="false"
     fit-margin-top="0"
     fit-margin-left="0"
     fit-margin-right="0"
     fit-margin-bottom="0"
     inkscape:zoom="1.7180923"
     inkscape:cx="537.84527"
     inkscape:cy="269.50552"
     inkscape:window-x="0"
     inkscape:window-y="24"
     inkscape:window-maximized="1"
     inkscape:current-layer="g10017" /><g
     id="g10015"
     inkscape:groupmode="layer"
     inkscape:label="Replication"
     transform="matrix(1.3333333,0,0,1.3333333,-3.7599999,-8.1416829e-7)"><g
       id="g10017"><path
   d="m 476.09,209.711 h 135 v 37.5 h -135 z"
   style="fill:#f0f0f0;fill-opacity:1;fill-rule:nonzero;stroke:none"
   id="path10019"
   inkscape:connector-curvature="0" /><path
   d="m 41.09,29.711 h 135 v 37.5 h -135 z"
   style="fill:#e3f4d7;fill-opacity:1;fill-rule:nonzero;stroke:none"
   id="path10021"
   inkscape:connector-curvature="0" /><path
   d="m 41.09,258.461 h 135 v 37.5 h -135 z"
   style="fill:#e3f4d7;fill-opacity:1;fill-rule:nonzero;stroke:none"
   id="path10023"
   inkscape:connector-curvature="0" /><path
   d="m 258.59,149.711 h 135 v 37.5 h -135 z"
   style="fill:#e3f4d7;fill-opacity:1;fill-rule:nonzero;stroke:none"
   id="path10025"
   inkscape:connector-curvature="0" /><path
   d="m 2.82,223.297 h 81.965 v 21.965 H 2.82 Z"
   style="fill:#e3f4d7;fill-opacity:1;fill-rule:nonzero;stroke:none"
   id="path10027"
   inkscape:connector-curvature="0" /><path
   d="m 258.59,29.711 h 135 v 37.5 h -135 z"
   style="fill:#fff6d5;fill-opacity:1;fill-rule:nonzero;stroke:none"
   id="path10029"
   inkscape:connector-curvature="0" /><path
   d="m 41.09,89.711 h 135 v 37.5 h -135 z"
   style="fill:#fff6d5;fill-opacity:1;fill-rule:nonzero;stroke:none"
   id="path10031"
   inkscape:connector-curvature="0" /><text
   transform="translate(288.03464,44.432319)"
   style="font-variant:normal;font-weight:normal;font-size:11px;font-family:Arial;-inkscape-font-specification:ArialMT;writing-mode:lr-tb;fill:#000000;fill-opacity:1;fill-rule:nonzero;stroke:none"
   id="text10037"><tspan
     x="0 7.3260002 14.652 23.848 26.895 29.941999 36.057999 39.105 45.221001 51.337002 57.452999 60.5 62.942001 69.057999 75.174004"
     y="0"
     sodipodi:role="line"
     id="tspan10033">PSM to peptide </tspan><tspan
     x="8.5507841 14.666784 20.782784 26.898785 30.561785 36.710785 42.826782 48.942783 51.989784 54.431786 60.547783"
     y="13.75"
     sodipodi:role="line"
     id="tspan10035">aggregation</tspan></text>


<path
   d="m 258.59,89.711 h 135 v 37.5 h -135 z"
   style="fill:#fff6d5;fill-opacity:1;fill-rule:nonzero;stroke:none"
   id="path10039"
   inkscape:connector-curvature="0" /><path
   d="m 2.82,139.941 h 81.965 v 83.355 H 2.82 Z"
   style="fill:#fff6d5;fill-opacity:1;fill-rule:nonzero;stroke:none"
   id="path10041"
   inkscape:connector-curvature="0" /><path
   d="m 258.59,209.711 h 135 v 37.5 h -135 z"
   style="fill:#fff6d5;fill-opacity:1;fill-rule:nonzero;stroke:none"
   id="path10043"
   inkscape:connector-curvature="0" /><path
   d="m 258.59,269.711 h 135 v 37.5 h -135 z"
   style="fill:#fff6d5;fill-opacity:1;fill-rule:nonzero;stroke:none"
   id="path10045"
   inkscape:connector-curvature="0" /><path
   d="m 258.59,329.711 h 134.957 v 37.422 H 258.59 Z"
   style="fill:#fff6d5;fill-opacity:1;fill-rule:nonzero;stroke:none"
   id="path10047"
   inkscape:connector-curvature="0" /><path
   d="m 476.09,29.711 h 135 v 37.5 h -135 z"
   style="fill:#fff6d5;fill-opacity:1;fill-rule:nonzero;stroke:none"
   id="path10049"
   inkscape:connector-curvature="0" /><path
   d="m 476.09,89.711 h 135 v 37.5 h -135 z"
   style="fill:#fff6d5;fill-opacity:1;fill-rule:nonzero;stroke:none"
   id="path10051"
   inkscape:connector-curvature="0" /><path
   d="m 476.09,149.711 h 135 v 37.5 h -135 z"
   style="fill:#fff6d5;fill-opacity:1;fill-rule:nonzero;stroke:none"
   id="path10053"
   inkscape:connector-curvature="0" /><path
   d="m 476.09,269.711 h 135 v 37.5 h -135 z"
   style="fill:#fff6d5;fill-opacity:1;fill-rule:nonzero;stroke:none"
   id="path10055"
   inkscape:connector-curvature="0" /><text
   transform="translate(22.941587,151.31765)"
   style="font-variant:normal;font-weight:normal;font-size:11px;font-family:Arial;-inkscape-font-specification:ArialMT;writing-mode:lr-tb;fill:#000000;fill-opacity:1;fill-rule:nonzero;stroke:none"
   id="text10067"><tspan
     x="0 6.71 12.826 15.268 17.709999 23.826 29.975 33.021999 36.685001 42.800999 48.917"
     y="0"
     sodipodi:role="line"
     id="tspan10057">Failed runs</tspan><tspan
     x="-7.3124919 0.62950802 6.7455082 12.861508 15.908508 19.571508 25.687508 28.162508 31.209509 37.91951 45.861507"
     y="21.264563"
     sodipodi:role="line"
     id="tspan10059">Control FDR</tspan><tspan
     x="-14.060541 -6.1185408 -0.002541 6.1134591 9.1604586 15.276459 24.439459 26.914459 33.03046 39.146458 45.262459 48.30946"
     y="42.535439"
     sodipodi:role="line"
     id="tspan10061">Contaminants</tspan><tspan
     x="-12.705055 -4.7630548 1.352945 3.794945 9.2949448 14.794945 17.841946 23.341946 29.457945 35.573944 41.073944 44.120945 47.783943"
     y="63.659367"
     sodipodi:role="line"
     id="tspan10063">Noisy spectra</tspan><tspan
     x="5.4677701 13.40977 15.85177 21.96777 28.083771 31.13077 38.456772 46.43177"
     y="87.308685"
     sodipodi:role="line"
     id="tspan10065">High SCR</tspan></text>


<text
   transform="translate(92.614355,44.262882)"
   style="font-variant:normal;font-weight:normal;font-size:11px;font-family:TeXGyreHeros;-inkscape-font-specification:TeXGyreHeros-Regular;writing-mode:lr-tb;fill:#000000;fill-opacity:1;fill-rule:nonzero;stroke:none"
   id="text10073"><tspan
     x="0 3.0580001 12.287 18.403 24.518999 28.534 31.591999"
     y="0"
     sodipodi:role="line"
     id="tspan10069"
     style="-inkscape-font-specification:Arial;font-family:Arial;font-weight:normal;font-style:normal;font-stretch:normal;font-variant:normal;">Import </tspan><tspan
     x="-29.712893 -23.596891 -20.021893 -13.905892 -7.7898922 -4.1708918 1.9451081 7.4451079 13.561108 19.061108 24.561108 30.677109 36.826107 39.884109 46.000107 52.116108 55.174107"
     y="14.016574"
     sodipodi:role="line"
     id="tspan10071"
     style="-inkscape-font-specification:Arial;font-family:Arial;font-weight:normal;font-style:normal;font-stretch:normal;font-variant:normal;">preprocessed data</tspan></text>


<text
   transform="translate(60.077422,112.08531)"
   style="font-variant:normal;font-weight:normal;font-size:11px;font-family:Arial;-inkscape-font-specification:ArialMT;writing-mode:lr-tb;fill:#000000;fill-opacity:1;fill-rule:nonzero;stroke:none"
   id="text10089"><tspan
     x="0 7.3260002 14.652 23.848 26.895 33.011002 39.126999 45.243 47.685001 50.126999 53.174 58.674 61.721001 67.221001 73.336998 79.453003 82.5 86.163002 92.311996"
     y="0"
     sodipodi:role="line"
     id="tspan10075">PSM quality control</tspan><tspan
     x="5.8715692 13.813569 19.929569 23.592569 32.78857 38.904568 41.346569 43.78857 49.28857 55.404568 58.451569 60.89357 67.009567 73.158569 76.205566 79.252571 85.368568"
     y="162.57951"
     sodipodi:role="line"
     id="tspan10077">Normalization to </tspan><tspan
     x="22.382317 26.045317 32.161316 35.208317 41.324314 44.987316 51.136314 57.252316 62.752316"
     y="176.32951"
     sodipodi:role="line"
     id="tspan10079">reference</tspan><tspan
     x="439.94647 447.27249 453.38849 459.50449 462.55148 464.9935 471.1095 477.25848 480.30548 483.35248 489.46848 492.51547 498.6315 502.29449 508.41049 511.45749 517.57349 520.0155 526.13147"
     y="-67.7201"
     sodipodi:role="line"
     id="tspan10081">Peptide to protein </tspan><tspan
     x="454.008 460.12399 466.23999 472.35602 476.01901 482.168 488.284 494.39999 497.44699 499.88901 506.005"
     y="-53.970104"
     sodipodi:role="line"
     id="tspan10083">aggregation</tspan><tspan
     x="449.81854 457.76056 463.87656 467.53955 476.73557 482.85156 485.29355 487.73557 493.23557 499.35156 502.39856 504.84055 510.95654"
     y="0.24792901"
     sodipodi:role="line"
     id="tspan10085">Normalization</tspan><tspan
     x="457.68451 460.73154 469.89453 476.01053 482.12653 485.17352 491.28952 494.33652 496.77853 502.89453"
     y="59.219368"
     sodipodi:role="line"
     id="tspan10087">Imputation</tspan></text>


<text
   transform="translate(77.331806,12.236313)"
   style="font-variant:normal;font-weight:bold;font-size:14px;font-family:Arial;-inkscape-font-specification:Arial-BoldMT;writing-mode:lr-tb;fill:#000000;fill-opacity:1;fill-rule:nonzero;stroke:none"
   id="text10097"><tspan
     x="0 9.3240004 18.648001 30.351999 34.23 38.108002 45.891998 53.675999 61.459999"
     y="0"
     sodipodi:role="line"
     id="tspan10091">PSM level</tspan><tspan
     x="200.81018 210.13417 217.91818 226.45818 231.16217 235.04018 243.58017 251.36418 255.24217 259.12018 266.90417 274.68817 282.47217"
     y="-2.214828"
     sodipodi:role="line"
     id="tspan10093">Peptide level</tspan><tspan
     x="424.03671 433.36072 438.8067 447.34671 452.0087 459.79269 463.67072 472.21069 476.08871 479.96671 487.7507 495.5347 503.36072"
     y="0.011718"
     sodipodi:role="line"
     id="tspan10095">Protein level</tspan></text>


<path
   inkscape:connector-curvature="0"
   id="path10101"
   style="fill:none;stroke:#000000;stroke-width:0.75118101;stroke-linecap:butt;stroke-linejoin:miter;stroke-miterlimit:4;stroke-dasharray:none;stroke-opacity:1"
   d="m 108.59,123.461 v 138.75" /><path
   inkscape:connector-curvature="0"
   id="path10105"
   style="fill:#000000;fill-opacity:1;fill-rule:evenodd;stroke:#000000;stroke-width:0.80125999;stroke-linecap:butt;stroke-linejoin:miter;stroke-miterlimit:4;stroke-dasharray:none;stroke-opacity:1"
   d="m 108.59,254.699 -3.004,-3.004 3.004,10.516 3.004,-10.516 z" /><path
   inkscape:connector-curvature="0"
   id="path10109"
   style="fill:none;stroke:#000000;stroke-width:0.75118101;stroke-linecap:butt;stroke-linejoin:miter;stroke-miterlimit:4;stroke-dasharray:none;stroke-opacity:1"
   d="m 108.59,63.461 v 30" /><path
   inkscape:connector-curvature="0"
   id="path10113"
   style="fill:#000000;fill-opacity:1;fill-rule:evenodd;stroke:#000000;stroke-width:0.80125999;stroke-linecap:butt;stroke-linejoin:miter;stroke-miterlimit:4;stroke-dasharray:none;stroke-opacity:1"
   d="m 108.59,85.949 -3.004,-3.004 3.004,10.516 3.004,-10.516 z" /><path
   inkscape:connector-curvature="0"
   id="path10117"
   style="fill:none;stroke:#000000;stroke-width:0.75118101;stroke-linecap:butt;stroke-linejoin:miter;stroke-miterlimit:4;stroke-dasharray:none;stroke-opacity:1"
   d="m 326.09,123.461 v 30" /><path
   inkscape:connector-curvature="0"
   id="path10121"
   style="fill:#000000;fill-opacity:1;fill-rule:evenodd;stroke:#000000;stroke-width:0.80125999;stroke-linecap:butt;stroke-linejoin:miter;stroke-miterlimit:4;stroke-dasharray:none;stroke-opacity:1"
   d="m 326.09,145.949 -3.004,-3.004 3.004,10.516 3.004,-10.516 z" /><path
   inkscape:connector-curvature="0"
   id="path10125"
   style="fill:none;stroke:#000000;stroke-width:0.75118101;stroke-linecap:butt;stroke-linejoin:miter;stroke-miterlimit:4;stroke-dasharray:none;stroke-opacity:1"
   d="m 326.09,183.461 v 30" /><path
   inkscape:connector-curvature="0"
   id="path10129"
   style="fill:#000000;fill-opacity:1;fill-rule:evenodd;stroke:#000000;stroke-width:0.80125999;stroke-linecap:butt;stroke-linejoin:miter;stroke-miterlimit:4;stroke-dasharray:none;stroke-opacity:1"
   d="m 326.09,205.949 -3.004,-3.004 3.004,10.516 3.004,-10.516 z" /><path
   inkscape:connector-curvature="0"
   id="path10133"
   style="fill:none;stroke:#000000;stroke-width:0.75118101;stroke-linecap:butt;stroke-linejoin:miter;stroke-miterlimit:4;stroke-dasharray:none;stroke-opacity:1"
   d="m 389.84,348.461 h 45 v -300 h 45" /><path
   inkscape:connector-curvature="0"
   id="path10137"
   style="fill:#000000;fill-opacity:1;fill-rule:evenodd;stroke:#000000;stroke-width:0.80125999;stroke-linecap:butt;stroke-linejoin:miter;stroke-miterlimit:4;stroke-dasharray:none;stroke-opacity:1"
   d="m 472.328,48.461 -3.004,3.004 10.516,-3.004 -10.516,-3.004 z" /><path
   inkscape:connector-curvature="0"
   id="path10141"
   style="fill:none;stroke:#000000;stroke-width:0.75118101;stroke-linecap:butt;stroke-linejoin:miter;stroke-miterlimit:4;stroke-dasharray:none;stroke-opacity:1"
   d="m 543.59,63.461 v 30" /><path
   inkscape:connector-curvature="0"
   id="path10145"
   style="fill:#000000;fill-opacity:1;fill-rule:evenodd;stroke:#000000;stroke-width:0.80125999;stroke-linecap:butt;stroke-linejoin:miter;stroke-miterlimit:4;stroke-dasharray:none;stroke-opacity:1"
   d="m 543.59,85.949 -3.004,-3.004 3.004,10.516 3.004,-10.516 z" /><path
   inkscape:connector-curvature="0"
   id="path10149"
   style="fill:none;stroke:#000000;stroke-width:0.75118101;stroke-linecap:butt;stroke-linejoin:miter;stroke-miterlimit:4;stroke-dasharray:none;stroke-opacity:1"
   d="m 543.59,123.461 v 30" /><path
   inkscape:connector-curvature="0"
   id="path10153"
   style="fill:#000000;fill-opacity:1;fill-rule:evenodd;stroke:#000000;stroke-width:0.80125999;stroke-linecap:butt;stroke-linejoin:miter;stroke-miterlimit:4;stroke-dasharray:none;stroke-opacity:1"
   d="m 543.59,145.949 -3.004,-3.004 3.004,10.516 3.004,-10.516 z" /><path
   d="m 537.621,310.961 h 12 v 24 h -12 z"
   style="fill:#9f9f9f;fill-opacity:1;fill-rule:nonzero;stroke:none"
   id="path10155"
   inkscape:connector-curvature="0" /><path
   d="m 531.621,333.461 h 24 l -12,12 z"
   style="fill:#9f9f9f;fill-opacity:1;fill-rule:nonzero;stroke:none"
   id="path10157"
   inkscape:connector-curvature="0" /><text
   transform="translate(492.9534,357.60637)"
   style="font-variant:normal;font-weight:normal;font-size:11px;font-family:Arial;-inkscape-font-specification:ArialMT;writing-mode:lr-tb;fill:#000000;fill-opacity:1;fill-rule:nonzero;stroke:none"
   id="text10161"><tspan
     x="0 7.9419999 14.058 22 28.115999 33.616001 36.662998 40.326 46.474998 52.591 61.754002 64.801003 70.917 77.032997 83.149002 85.624001 91.124001 96.624001 102.74"
     y="0"
     sodipodi:role="line"
     id="tspan10159">Downstream analyses</tspan></text>


<path
   inkscape:connector-curvature="0"
   id="path10165"
   style="fill:none;stroke:#000000;stroke-width:0.75118101;stroke-linecap:butt;stroke-linejoin:miter;stroke-miterlimit:4;stroke-dasharray:none;stroke-opacity:1"
   d="m 326.09,63.461 v 30" /><path
   inkscape:connector-curvature="0"
   id="path10169"
   style="fill:#000000;fill-opacity:1;fill-rule:evenodd;stroke:#000000;stroke-width:0.80125999;stroke-linecap:butt;stroke-linejoin:miter;stroke-miterlimit:4;stroke-dasharray:none;stroke-opacity:1"
   d="m 326.09,85.949 -3.004,-3.004 3.004,10.516 3.004,-10.516 z" /><path
   inkscape:connector-curvature="0"
   id="path10173"
   style="fill:none;stroke:#000000;stroke-width:0.75118101;stroke-linecap:butt;stroke-linejoin:miter;stroke-miterlimit:4;stroke-dasharray:none;stroke-opacity:1"
   d="m 172.34,277.211 h 45 V 48.461 h 45" /><path
   inkscape:connector-curvature="0"
   id="path10177"
   style="fill:#000000;fill-opacity:1;fill-rule:evenodd;stroke:#000000;stroke-width:0.80125999;stroke-linecap:butt;stroke-linejoin:miter;stroke-miterlimit:4;stroke-dasharray:none;stroke-opacity:1"
   d="m 254.828,48.461 -3.004,3.004 10.516,-3.004 -10.516,-3.004 z" /><path
   inkscape:connector-curvature="0"
   id="path10181"
   style="fill:none;stroke:#000000;stroke-width:0.75118101;stroke-linecap:butt;stroke-linejoin:miter;stroke-miterlimit:4;stroke-dasharray:none;stroke-opacity:1"
   d="m 326.09,243.461 v 30" /><path
   inkscape:connector-curvature="0"
   id="path10185"
   style="fill:#000000;fill-opacity:1;fill-rule:evenodd;stroke:#000000;stroke-width:0.80125999;stroke-linecap:butt;stroke-linejoin:miter;stroke-miterlimit:4;stroke-dasharray:none;stroke-opacity:1"
   d="m 326.09,265.949 -3.004,-3.004 3.004,10.516 3.004,-10.516 z" /><path
   inkscape:connector-curvature="0"
   id="path10189"
   style="fill:none;stroke:#000000;stroke-width:0.75118101;stroke-linecap:butt;stroke-linejoin:miter;stroke-miterlimit:4;stroke-dasharray:none;stroke-opacity:1"
   d="m 326.09,303.461 v 30" /><path
   inkscape:connector-curvature="0"
   id="path10193"
   style="fill:#000000;fill-opacity:1;fill-rule:evenodd;stroke:#000000;stroke-width:0.80125999;stroke-linecap:butt;stroke-linejoin:miter;stroke-miterlimit:4;stroke-dasharray:none;stroke-opacity:1"
   d="m 326.09,325.949 -3.004,-3.004 3.004,10.516 3.004,-10.516 z" /><text
   transform="translate(503.79977,232.33322)"
   style="font-variant:normal;font-weight:normal;font-size:11px;font-family:Arial;-inkscape-font-specification:ArialMT;writing-mode:lr-tb;fill:#000000;fill-opacity:1;fill-rule:nonzero;stroke:none"
   id="text10197"><tspan
     x="0 7.3260002 13.442 16.489 21.989 28.105 31.152 36.652 42.768002 46.431 50.126999 56.243 61.743 64.790001 67.232002 73.348"
     y="0"
     sodipodi:role="line"
     id="tspan10195">Batch correction</tspan></text>


<path
   inkscape:connector-curvature="0"
   id="path10201"
   style="fill:none;stroke:#000000;stroke-width:0.75118101;stroke-linecap:butt;stroke-linejoin:miter;stroke-miterlimit:4;stroke-dasharray:none;stroke-opacity:1"
   d="m 543.59,183.461 v 30" /><path
   inkscape:connector-curvature="0"
   id="path10205"
   style="fill:#000000;fill-opacity:1;fill-rule:evenodd;stroke:#000000;stroke-width:0.80125999;stroke-linecap:butt;stroke-linejoin:miter;stroke-miterlimit:4;stroke-dasharray:none;stroke-opacity:1"
   d="m 543.59,205.949 -3.004,-3.004 3.004,10.516 3.004,-10.516 z" /><text
   transform="translate(509.89597,292.33321)"
   style="font-variant:normal;font-weight:normal;font-size:11px;font-family:Arial;-inkscape-font-specification:ArialMT;writing-mode:lr-tb;fill:#000000;fill-opacity:1;fill-rule:nonzero;stroke:none"
   id="text10209"><tspan
     x="0 7.9419999 14.058 17.721001 26.917 33.033001 35.474998 37.917 43.417 49.533001 52.580002 55.021999 61.138"
     y="0"
     sodipodi:role="line"
     id="tspan10207">Normalization</tspan></text>


<path
   inkscape:connector-curvature="0"
   id="path10213"
   style="fill:none;stroke:#000000;stroke-width:0.75118101;stroke-linecap:butt;stroke-linejoin:miter;stroke-miterlimit:4;stroke-dasharray:none;stroke-opacity:1"
   d="m 543.59,243.461 v 30" /><path
   inkscape:connector-curvature="0"
   id="path10217"
   style="fill:#000000;fill-opacity:1;fill-rule:evenodd;stroke:#000000;stroke-width:0.80125999;stroke-linecap:butt;stroke-linejoin:miter;stroke-miterlimit:4;stroke-dasharray:none;stroke-opacity:1"
   d="m 543.59,265.949 -3.004,-3.004 3.004,10.516 3.004,-10.516 z" /><path
   inkscape:connector-curvature="0"
   id="path10221"
   style="fill:none;stroke:#000000;stroke-width:0.75118101;stroke-linecap:butt;stroke-linejoin:miter;stroke-miterlimit:4;stroke-dasharray:none;stroke-opacity:1"
   d="M 108.742,148.512 H 84.785" /><path
   inkscape:connector-curvature="0"
   id="path10225"
   style="fill:#000000;fill-opacity:1;fill-rule:evenodd;stroke:#000000;stroke-width:0.80125999;stroke-linecap:butt;stroke-linejoin:miter;stroke-miterlimit:4;stroke-dasharray:none;stroke-opacity:1"
   d="m 92.297,148.512 3.004,-3.004 -10.516,3.004 10.516,3.004 z" /><path
   inkscape:connector-curvature="0"
   id="path10229"
   style="fill:none;stroke:#000000;stroke-width:0.75118101;stroke-linecap:butt;stroke-linejoin:miter;stroke-miterlimit:4;stroke-dasharray:none;stroke-opacity:1"
   d="M 108.742,169.988 H 84.785" /><path
   inkscape:connector-curvature="0"
   id="path10233"
   style="fill:#000000;fill-opacity:1;fill-rule:evenodd;stroke:#000000;stroke-width:0.80125999;stroke-linecap:butt;stroke-linejoin:miter;stroke-miterlimit:4;stroke-dasharray:none;stroke-opacity:1"
   d="m 92.297,169.988 3.004,-3.004 -10.516,3.004 10.516,3.004 z" /><path
   inkscape:connector-curvature="0"
   id="path10237"
   style="fill:none;stroke:#000000;stroke-width:0.75118101;stroke-linecap:butt;stroke-linejoin:miter;stroke-miterlimit:4;stroke-dasharray:none;stroke-opacity:1"
   d="M 108.742,191.465 H 84.785" /><path
   inkscape:connector-curvature="0"
   id="path10241"
   style="fill:#000000;fill-opacity:1;fill-rule:evenodd;stroke:#000000;stroke-width:0.80125999;stroke-linecap:butt;stroke-linejoin:miter;stroke-miterlimit:4;stroke-dasharray:none;stroke-opacity:1"
   d="m 92.297,191.465 3.004,-3.004 -10.516,3.004 10.516,3.008 z" /><path
   inkscape:connector-curvature="0"
   id="path10245"
   style="fill:none;stroke:#000000;stroke-width:0.75118101;stroke-linecap:butt;stroke-linejoin:miter;stroke-miterlimit:4;stroke-dasharray:none;stroke-opacity:1"
   d="M 108.742,212.945 H 84.785" /><path
   inkscape:connector-curvature="0"
   id="path10249"
   style="fill:#000000;fill-opacity:1;fill-rule:evenodd;stroke:#000000;stroke-width:0.80125999;stroke-linecap:butt;stroke-linejoin:miter;stroke-miterlimit:4;stroke-dasharray:none;stroke-opacity:1"
   d="m 92.297,212.945 3.004,-3.004 -10.516,3.004 10.516,3.004 z" /><path
   inkscape:connector-curvature="0"
   id="path10253"
   style="fill:none;stroke:#000000;stroke-width:0.75118101;stroke-linecap:butt;stroke-linejoin:miter;stroke-miterlimit:4;stroke-dasharray:none;stroke-opacity:1"
   d="M 108.742,234.422 H 84.785" /><path
   inkscape:connector-curvature="0"
   id="path10257"
   style="fill:#000000;fill-opacity:1;fill-rule:evenodd;stroke:#000000;stroke-width:0.80125999;stroke-linecap:butt;stroke-linejoin:miter;stroke-miterlimit:4;stroke-dasharray:none;stroke-opacity:1"
   d="m 92.297,234.422 3.004,-3.004 -10.516,3.004 10.516,3.004 z" /><text
   transform="translate(276.01951,111.24022)"
   style="font-variant:normal;font-weight:normal;font-size:11px;font-family:Arial;-inkscape-font-specification:ArialMT;writing-mode:lr-tb;fill:#000000;fill-opacity:1;fill-rule:nonzero;stroke:none"
   id="text10273"><tspan
     x="0 6.71 12.826 16.489 25.684999 31.801001 34.848 37.895 47.057999 49.5 55 60.5 62.942001 69.057999 75.174004 78.221001 84.336998 90.486 93.532997"
     y="0"
     sodipodi:role="line"
     id="tspan10259">Format missing data</tspan><tspan
     x="24.860109 32.186111 34.628109 40.74411 46.860111 49.33511 55.451111 59.114109 64.614113 70.73011 73.172112 75.64711"
     y="53.192139"
     sodipodi:role="line"
     id="tspan10261">Single-cell </tspan><tspan
     x="16.309326 22.425325 28.541327 34.657326 37.099327 39.541325 42.588326 48.088326 51.135326 56.635326 62.751328 68.867325 71.91433 75.610329 81.726326"
     y="66.942139"
     sodipodi:role="line"
     id="tspan10263">quality control</tspan><tspan
     x="15.995116 23.937117 30.053116 33.716118 42.912117 49.028118 51.470116 53.912117 59.412117 65.528114 68.575119 71.017113 77.133118 83.28212"
     y="121.09301"
     sodipodi:role="line"
     id="tspan10265">Normalization </tspan><tspan
     x="21.774418 28.484417 30.926418 33.368416 36.415417 42.531418 46.194416 49.241417 55.357418 57.832417 63.948418 70.064415 72.506416 78.006416"
     y="173.12498"
     sodipodi:role="line"
     id="tspan10267">Filter highly </tspan><tspan
     x="8.9267588 18.089758 20.531759 26.031759 31.531759 33.973759 40.08976 46.238758 49.285759 55.40176 61.517757 67.633759 70.680756 73.122757 79.238762 85.354759"
     y="186.87498"
     sodipodi:role="line"
     id="tspan10269">missing peptides</tspan><tspan
     x="3.8243976 9.9403973 16.056398 22.172398 25.835398 28.882397 32.578396 38.694397 44.810398 50.310398 53.357399 59.473396 63.136398 72.332397 78.448395 81.495399 83.937401 90.053398"
     y="240.02757"
     sodipodi:role="line"
     id="tspan10271">Log-transformation</tspan></text>


</g><g
       transform="matrix(-0.982972,1,-1,-0.982972,0,0)"
       id="g11745" /></g></svg>